Coordinates
version=1
nRows=9
nColumns=24
inDegrees=yes

Units are S.I. units (second, meters, Newtons, ...)
Angles are in degrees.

endheader
time	pelvis_tilt	pelvis_list	pelvis_rotation	pelvis_tx	pelvis_ty	pelvis_tz	hip_flexion_r	hip_adduction_r	hip_rotation_r	knee_angle_r	ankle_angle_r	subtalar_angle_r	mtp_angle_r	hip_flexion_l	hip_adduction_l	hip_rotation_l	knee_angle_l	ankle_angle_l	subtalar_angle_l	mtp_angle_l	lumbar_extension	lumbar_bending	lumbar_rotation
      0.77500000	     -0.34594324	     -4.28806389	      7.68105023	     -0.44099862	      1.03266519	      0.32637981	     10.38463680	     10.66027328	     -4.01555274	    -12.34235972	      0.81723211	    -12.24865555	      6.44737206	     18.35812133	     -8.45470126	     -2.58622545	    -68.32138589	     -1.67476237	     -0.14040393	      2.40935422	     -4.25058957	      2.05142086	     -1.69733509
      0.77916667	     -0.37032139	     -4.17459641	      7.66201838	     -0.43597693	      1.03341808	      0.32651420	      9.95195556	     10.59188680	     -3.97203082	    -12.09130707	      0.98716621	    -12.06547510	      5.87370911	     18.88002516	     -8.31780279	     -2.54518244	    -67.97255954	     -1.04450451	     -0.58970827	     -0.07071253	     -4.28590448	      1.90130819	     -1.62018358
      0.78333333	     -0.39443776	     -4.05931103	      7.66215015	     -0.43094934	      1.03416664	      0.32662889	      9.50562878	     10.52219395	     -3.94048502	    -11.80216017	      1.07498758	    -12.01941785	      5.87455421	     19.38545695	     -8.16939548	     -2.48226424	    -67.54866768	     -0.47370462	     -0.99210769	     -0.06525135	     -4.30321522	      1.75429214	     -1.57129091
      0.78750000	     -0.41140181	     -3.94089973	      7.64221148	     -0.42595153	      1.03491334	      0.32676093	      9.05427401	     10.45138378	     -3.88610705	    -11.51950189	      1.16669946	    -11.94134661	      5.87463656	     19.85958215	     -8.01900933	     -2.44057560	    -67.05521689	      0.04579352	     -1.41188126	     -0.06464522	     -4.34067139	      1.60104295	     -1.50281418
      0.79166667	     -0.40205243	     -3.79151315	      7.61394723	     -0.42098469	      1.03569832	      0.32688547	      8.57403749	     10.34883025	     -3.82164065	    -11.24809914	      1.29526462	    -11.80911994	      5.87076809	     20.27409839	     -7.82910614	     -2.40622912	    -66.47842066	      0.45994830	     -1.87675430	     -0.08264622	     -4.44373500	      1.41243299	     -1.35737311
      0.79583333	     -0.44371743	     -3.67223098	      7.57879624	     -0.41600891	      1.03635268	      0.32702273	      8.15767644	     10.27158091	     -3.77398484	    -10.98089239	      1.39454939	    -11.71614628	      5.86810475	     20.73521513	     -7.66978132	     -2.37605456	    -65.86168263	      0.94491565	     -2.22550661	     -0.08869704	     -4.44607775	      1.25795314	     -1.29285009
      0.80000000	     -0.42719532	     -3.50779240	      7.52640103	     -0.41106903	      1.03712050	      0.32715610	      7.67426859	     10.15236505	     -3.70158118	    -10.72146065	      1.53618199	    -11.56593546	      5.85893745	     21.08895382	     -7.46039464	     -2.36147623	    -65.14523009	      1.31546488	     -2.62965952	     -0.11649507	     -4.55307584	      1.06295814	     -1.14989166
      0.80416667	     -0.46991894	     -3.37668926	      7.47077889	     -0.40611744	      1.03773172	      0.32730174	      7.26393292	     10.06107465	     -3.64077388	    -10.46801563	      1.64191305	    -11.46581016	      5.85280913	     21.50259270	     -7.28467175	     -2.34954860	    -64.39698869	      1.74471736	     -2.94730402	     -0.12923524	     -4.56101191	      0.88279511	     -1.07953047
      0.80833333	     -0.45333983	     -3.22165410	      7.40154988	     -0.40121373	      1.03843156	      0.32743504	      6.78983266	      9.95072494	     -3.55458772	    -10.21978808	      1.79585995	    -11.31005805	      5.83466147	     21.81691669	     -7.08294646	     -2.34468050	    -63.55997949	      2.05641532	     -3.30956411	     -0.17041372	     -4.66112461	      0.70264031	     -0.91630229
